<svg width="44" height="44" viewBox="0 0 44 44" version="2.0" xmlns="http://www.w3.org/2000/svg" xmlns:xlink="http://www.w3.org/1999/xlink" xmlns:figma="http://www.figma.com/figma/ns">
<title>Clear Night</title>
<desc>Created using Figma 0.90</desc>
<g id="Canvas" transform="translate(-563 325)" figma:type="canvas">
<mask id="mask0_outline" mask-type="alpha">
<path d="M 563 -325L 607 -325L 607 -281L 563 -281L 563 -325Z" fill="#FFFFFF"/>
</mask>
<g id="Clear Night" style="mix-blend-mode:normal;" mask="url(#mask0_outline)" figma:type="frame">
<g id="Night CLear" style="mix-blend-mode:normal;" figma:type="group">
<g id="Subtract" style="mix-blend-mode:normal;" opacity="0.95" figma:type="vector">
<use xlink:href="#path0_fill" transform="translate(568 -316)" fill="#FFFFFF" style="mix-blend-mode:normal;"/>
</g>
<g id="Star" style="mix-blend-mode:normal;" figma:type="vector">
<use xlink:href="#path1_fill" transform="translate(583 -311)" fill="#FFCC33" style="mix-blend-mode:normal;"/>
</g>
<g id="Star" style="mix-blend-mode:normal;" figma:type="vector">
<use xlink:href="#path2_fill" transform="translate(596 -303)" fill="#9FAFE5" style="mix-blend-mode:normal;"/>
</g>
<g id="Star" style="mix-blend-mode:normal;" figma:type="vector">
<use xlink:href="#path3_fill" transform="translate(592 -320)" fill="#697B94" style="mix-blend-mode:normal;"/>
</g>
</g>
</g>
</g>
<defs>
<path id="path0_fill" d="M 0 14.3711C 0 22.3731 6.48689 28.86 14.4889 28.86C 18.0429 28.86 21.2981 27.5804 23.8188 25.4567C 24.1809 25.1516 23.9127 24.5787 23.4394 24.5924C 23.2974 24.5965 23.1548 24.5986 23.0118 24.5986C 15.0098 24.5986 8.52287 18.1117 8.52287 10.1097C 8.52287 6.69247 9.70587 3.55158 11.6847 1.07418C 11.9802 0.7042 11.6834 0.145699 11.222 0.25203C 4.79335 1.73349 0 7.49253 0 14.3711Z"/>
<path id="path1_fill" d="M 4.76355 0.688653C 4.84083 0.463568 5.15917 0.463568 5.23645 0.688653L 6.12238 3.26888C 6.15705 3.36987 6.25205 3.43769 6.35883 3.43769L 9.19512 3.43769C 9.44062 3.43769 9.53906 3.75461 9.33675 3.8937L 7.06631 5.45472C 6.97382 5.51831 6.93505 5.63575 6.9715 5.74191L 7.84425 8.28378C 7.92251 8.5117 7.66474 8.7075 7.46617 8.57097L 5.14164 6.97277C 5.05632 6.91411 4.94368 6.91411 4.85836 6.97277L 2.53383 8.57097C 2.33526 8.7075 2.07749 8.5117 2.15575 8.28378L 3.0285 5.74191C 3.06495 5.63575 3.02618 5.51831 2.93369 5.45472L 0.663245 3.8937C 0.46094 3.75461 0.559375 3.43769 0.804883 3.43769L 3.64117 3.43769C 3.74795 3.43769 3.84295 3.36987 3.87762 3.26888L 4.76355 0.688653Z"/>
<path id="path2_fill" d="M 3.26482 0.652344C 3.34423 0.432061 3.65577 0.432061 3.73518 0.652344L 4.26668 2.12658C 4.30242 2.22572 4.39648 2.2918 4.50186 2.2918L 6.16184 2.2918C 6.41026 2.2918 6.50662 2.61486 6.29879 2.75095L 5.00208 3.60003C 4.90523 3.66345 4.86459 3.78506 4.90385 3.89397L 5.40941 5.29626C 5.49082 5.52209 5.2381 5.7217 5.03727 5.5902L 3.63695 4.67327C 3.55377 4.6188 3.44623 4.6188 3.36305 4.67327L 1.96273 5.5902C 1.7619 5.7217 1.50918 5.52209 1.59059 5.29626L 2.09615 3.89397C 2.13541 3.78506 2.09477 3.66345 1.99792 3.60003L 0.701209 2.75095C 0.493379 2.61486 0.58974 2.2918 0.838161 2.2918L 2.49814 2.2918C 2.60352 2.2918 2.69758 2.22572 2.73332 2.12658L 3.26482 0.652344Z"/>
<path id="path3_fill" d="M 3.26482 0.652344C 3.34423 0.432061 3.65577 0.432061 3.73518 0.652344L 4.26668 2.12658C 4.30242 2.22572 4.39648 2.2918 4.50186 2.2918L 6.16184 2.2918C 6.41026 2.2918 6.50662 2.61486 6.29879 2.75095L 5.00208 3.60003C 4.90523 3.66345 4.86459 3.78506 4.90385 3.89397L 5.40941 5.29626C 5.49082 5.52209 5.2381 5.7217 5.03727 5.5902L 3.63695 4.67327C 3.55377 4.6188 3.44623 4.6188 3.36305 4.67327L 1.96273 5.5902C 1.7619 5.7217 1.50918 5.52209 1.59059 5.29626L 2.09615 3.89397C 2.13541 3.78506 2.09477 3.66345 1.99792 3.60003L 0.701209 2.75095C 0.493379 2.61486 0.58974 2.2918 0.838161 2.2918L 2.49814 2.2918C 2.60352 2.2918 2.69758 2.22572 2.73332 2.12658L 3.26482 0.652344Z"/>
</defs>
</svg>
