<svg width="44" height="44" viewBox="0 0 44 44" version="2.0" xmlns="http://www.w3.org/2000/svg" xmlns:xlink="http://www.w3.org/1999/xlink" xmlns:figma="http://www.figma.com/figma/ns">
<title>Cloudy Night</title>
<desc>Created using Figma 0.90</desc>
<g id="Canvas" transform="translate(-810 325)" figma:type="canvas">
<mask id="mask0_outline" mask-type="alpha">
<path d="M 810 -325L 854 -325L 854 -281L 810 -281L 810 -325Z" fill="#FFFFFF"/>
</mask>
<g id="Cloudy Night" style="mix-blend-mode:normal;" mask="url(#mask0_outline)" figma:type="frame">
<g id="Cloudy Night" style="mix-blend-mode:normal;" figma:type="group">
<g id="Subtract" style="mix-blend-mode:normal;" opacity="0.95" figma:type="vector-operation">
<use xlink:href="#path0_fill" transform="matrix(1 0 0 1 837.703 -318.723)" fill="#FFFFFF" style="mix-blend-mode:normal;"/>
</g>
<g id="Cloud" style="mix-blend-mode:normal;isolation:isolate;" figma:type="vector">
<use xlink:href="#path1_fill" transform="translate(814.703 -311)" fill="#697B94" style="mix-blend-mode:normal;"/>
</g>
<g id="Star" style="mix-blend-mode:normal;" figma:type="vector">
<use xlink:href="#path2_fill" transform="translate(825.899 -322)" fill="#FFCC33" style="mix-blend-mode:normal;"/>
</g>
<g id="Star" style="mix-blend-mode:normal;" figma:type="vector">
<use xlink:href="#path3_fill" transform="translate(812.703 -319)" fill="#697B94" style="mix-blend-mode:normal;"/>
</g>
<g id="Star" style="mix-blend-mode:normal;" figma:type="vector">
<use xlink:href="#path4_fill" transform="translate(810.703 -308)" fill="#9FAFE5" style="mix-blend-mode:normal;"/>
</g>
</g>
</g>
</g>
<defs>
<path id="path0_fill" d="M 13.8804 14.2132C 9.05373 14.2132 5.1409 10.3921 5.1409 5.67851C 5.1409 3.87945 5.71091 2.2104 6.68418 0.834196C 6.95888 0.445773 6.65392 -0.114602 6.19779 0.0205845C 2.61076 1.08369 0 4.33846 0 8.18871C 0 8.19999 2.24052e-05 8.21126 6.71745e-05 8.22253C 1.85987 9.6195 3.31733 11.5232 4.1675 13.7286C 4.27791 13.7251 4.38876 13.7234 4.5 13.7234C 7.14612 13.7234 9.56363 14.7022 11.4102 16.3176C 12.4183 16.002 13.3467 15.5125 14.1583 14.8853C 14.4489 14.6607 14.2477 14.2132 13.8804 14.2132Z"/>
<path id="path1_fill" d="M 7 25L 27.5 25L 28 25L 28 24.9855C 32.4617 24.7267 36 21.0266 36 16.5C 36 11.8056 32.1944 8 27.5 8C 26.8977 8 26.3101 8.06264 25.7432 8.18176C 24.6878 3.49821 20.5024 0 15.5 0C 9.70101 0 5 4.70101 5 10.5C 5 10.7628 5.00966 11.0234 5.02864 11.2814C 2.12244 12.1328 0 14.8185 0 18C 0 21.866 3.13401 25 7 25Z"/>
<path id="path2_fill" d="M 3.56647 0.731762C 3.6413 0.501435 3.96716 0.501435 4.04199 0.731762L 4.64616 2.59119C 4.67963 2.69419 4.77562 2.76393 4.88392 2.76393L 6.83904 2.76393C 7.08122 2.76393 7.18191 3.07384 6.98598 3.21619L 5.40426 4.36537C 5.31664 4.42904 5.27998 4.54188 5.31344 4.64488L 5.91761 6.50431C 5.99245 6.73463 5.72883 6.92617 5.5329 6.78382L 3.95118 5.63463C 3.86355 5.57097 3.74491 5.57097 3.65728 5.63463L 2.07556 6.78382C 1.87963 6.92617 1.61601 6.73463 1.69085 6.50431L 2.29501 4.64488C 2.32848 4.54188 2.29182 4.42904 2.2042 4.36537L 0.622475 3.21619C 0.426547 3.07384 0.52724 2.76393 0.769421 2.76393L 2.72454 2.76393C 2.83284 2.76393 2.92883 2.69419 2.9623 2.59119L 3.56647 0.731762Z"/>
<path id="path3_fill" d="M 3.26482 0.652344C 3.34423 0.432061 3.65577 0.432061 3.73518 0.652344L 4.26668 2.12658C 4.30242 2.22572 4.39648 2.2918 4.50186 2.2918L 6.16184 2.2918C 6.41026 2.2918 6.50662 2.61486 6.29879 2.75095L 5.00208 3.60003C 4.90523 3.66345 4.86459 3.78506 4.90385 3.89397L 5.40941 5.29626C 5.49082 5.52209 5.2381 5.7217 5.03727 5.5902L 3.63695 4.67327C 3.55377 4.6188 3.44623 4.6188 3.36305 4.67327L 1.96273 5.5902C 1.7619 5.7217 1.50918 5.52209 1.59059 5.29626L 2.09615 3.89397C 2.13541 3.78506 2.09477 3.66345 1.99792 3.60003L 0.701209 2.75095C 0.493379 2.61486 0.58974 2.2918 0.838161 2.2918L 2.49814 2.2918C 2.60352 2.2918 2.69758 2.22572 2.73332 2.12658L 3.26482 0.652344Z"/>
<path id="path4_fill" d="M 3.26482 0.652344C 3.34423 0.432061 3.65577 0.432061 3.73518 0.652344L 4.26668 2.12658C 4.30242 2.22572 4.39648 2.2918 4.50186 2.2918L 6.16184 2.2918C 6.41026 2.2918 6.50662 2.61486 6.29879 2.75095L 5.00208 3.60003C 4.90523 3.66345 4.86459 3.78506 4.90385 3.89397L 5.40941 5.29626C 5.49082 5.52209 5.2381 5.7217 5.03727 5.5902L 3.63695 4.67327C 3.55377 4.6188 3.44623 4.6188 3.36305 4.67327L 1.96273 5.5902C 1.7619 5.7217 1.50918 5.52209 1.59059 5.29626L 2.09615 3.89397C 2.13541 3.78506 2.09477 3.66345 1.99792 3.60003L 0.701209 2.75095C 0.493379 2.61486 0.58974 2.2918 0.838161 2.2918L 2.49814 2.2918C 2.60352 2.2918 2.69758 2.22572 2.73332 2.12658L 3.26482 0.652344Z"/>
</defs>
</svg>
