<svg width="44" height="44" viewBox="0 0 44 44" version="2.0" xmlns="http://www.w3.org/2000/svg" xmlns:xlink="http://www.w3.org/1999/xlink" xmlns:figma="http://www.figma.com/figma/ns">
<title>Fog</title>
<desc>Created using Figma 0.90</desc>
<g id="Canvas" transform="translate(-689 325)" figma:type="canvas">
<mask id="mask0_outline" mask-type="alpha">
<path d="M 689 -325L 733 -325L 733 -281L 689 -281L 689 -325Z" fill="#FFFFFF"/>
</mask>
<g id="Fog" style="mix-blend-mode:normal;" mask="url(#mask0_outline)" figma:type="frame">
<g id="Heavy Rain" style="mix-blend-mode:normal;" figma:type="group">
<g id="Cloud" style="mix-blend-mode:normal;" figma:type="vector">
<use xlink:href="#path0_fill" transform="translate(693 -322)" fill="#FFFFFF" style="mix-blend-mode:normal;"/>
</g>
<g id="Group" style="mix-blend-mode:normal;" figma:type="group">
<g id="Rectangle" style="mix-blend-mode:normal;" figma:type="rounded-rectangle">
<use xlink:href="#path1_fill" transform="matrix(-3.46945e-18 -1 1 -1.38778e-17 713 -292)" fill="#697B94" style="mix-blend-mode:normal;"/>
</g>
<g id="Rectangle" style="mix-blend-mode:normal;" figma:type="rounded-rectangle">
<use xlink:href="#path2_fill" transform="matrix(-3.46945e-18 -1 1 -1.38778e-17 706 -292)" fill="#697B94" style="mix-blend-mode:normal;"/>
</g>
<g id="Rectangle" style="mix-blend-mode:normal;" figma:type="rounded-rectangle">
<use xlink:href="#path3_fill" transform="matrix(-3.46945e-18 -1 1 -1.38778e-17 715 -284)" fill="#697B94" style="mix-blend-mode:normal;"/>
</g>
<g id="Rectangle" style="mix-blend-mode:normal;" figma:type="rounded-rectangle">
<use xlink:href="#path2_fill" transform="matrix(-3.46945e-18 -1 1 -1.38778e-17 699 -292)" fill="#697B94" style="mix-blend-mode:normal;"/>
</g>
<g id="Rectangle" style="mix-blend-mode:normal;" figma:type="rounded-rectangle">
<use xlink:href="#path1_fill" transform="matrix(-3.46945e-18 -1 1 -1.38778e-17 699 -288)" fill="#697B94" style="mix-blend-mode:normal;"/>
</g>
<g id="Rectangle" style="mix-blend-mode:normal;" figma:type="rounded-rectangle">
<use xlink:href="#path1_fill" transform="matrix(-3.46945e-18 -1 1 -1.38778e-17 704 -284)" fill="#697B94" style="mix-blend-mode:normal;"/>
</g>
<g id="Rectangle" style="mix-blend-mode:normal;" figma:type="rounded-rectangle">
<use xlink:href="#path4_fill" transform="matrix(-3.46945e-18 -1 1 -1.38778e-17 699 -284)" fill="#697B94" style="mix-blend-mode:normal;"/>
</g>
<g id="Rectangle" style="mix-blend-mode:normal;" figma:type="rounded-rectangle">
<use xlink:href="#path5_fill" transform="matrix(-3.46945e-18 -1 1 -1.38778e-17 710 -288)" fill="#697B94" style="mix-blend-mode:normal;"/>
</g>
<g id="Rectangle" style="mix-blend-mode:normal;" figma:type="rounded-rectangle">
<use xlink:href="#path6_fill" transform="matrix(-3.46945e-18 -1 1 -1.38778e-17 718 -288)" fill="#697B94" style="mix-blend-mode:normal;"/>
</g>
</g>
</g>
</g>
</g>
<defs>
<path id="path0_fill" d="M 7 25L 27.5 25L 28 25L 28 24.9855C 32.4617 24.7267 36 21.0266 36 16.5C 36 11.8056 32.1944 8 27.5 8C 26.8977 8 26.3101 8.06264 25.7432 8.18176C 24.6878 3.49821 20.5024 0 15.5 0C 9.70101 0 5 4.70101 5 10.5C 5 10.7628 5.00966 11.0234 5.02864 11.2814C 2.12244 12.1328 0 14.8185 0 18C 0 21.866 3.13401 25 7 25Z"/>
<path id="path1_fill" d="M 0 1C 0 0.447715 0.447715 0 1 0L 1 0C 1.55228 0 2 0.447715 2 1L 2 8C 2 8.55228 1.55228 9 1 9L 1 9C 0.447715 9 0 8.55228 0 8L 0 1Z"/>
<path id="path2_fill" d="M 0 1C 0 0.447715 0.447715 0 1 0L 1 0C 1.55228 0 2 0.447715 2 1L 2 4C 2 4.55228 1.55228 5 1 5L 1 5C 0.447715 5 0 4.55228 0 4L 0 1Z"/>
<path id="path3_fill" d="M 0 1C 0 0.447715 0.447715 0 1 0L 1 0C 1.55228 0 2 0.447715 2 1L 2 6C 2 6.55228 1.55228 7 1 7L 1 7C 0.447715 7 0 6.55228 0 6L 0 1Z"/>
<path id="path4_fill" d="M 0 1C 0 0.447715 0.447715 0 1 0L 1 0C 1.55228 0 2 0.447715 2 1L 2 2C 2 2.55228 1.55228 3 1 3L 1 3C 0.447715 3 0 2.55228 0 2L 0 1Z"/>
<path id="path5_fill" d="M 0 1C 0 0.447715 0.447715 0 1 0L 1 0C 1.55228 0 2 0.447715 2 1L 2 5C 2 5.55228 1.55228 6 1 6L 1 6C 0.447715 6 0 5.55228 0 5L 0 1Z"/>
<path id="path6_fill" d="M 0 1C 0 0.447715 0.447715 0 1 0L 1 0C 1.55228 0 2 0.447715 2 1L 2 3C 2 3.55228 1.55228 4 1 4L 1 4C 0.447715 4 0 3.55228 0 3L 0 1Z"/>
</defs>
</svg>
