<svg width="44" height="44" viewBox="0 0 44 44" version="2.0" xmlns="http://www.w3.org/2000/svg" xmlns:xlink="http://www.w3.org/1999/xlink" xmlns:figma="http://www.figma.com/figma/ns">
<title>Snow</title>
<desc>Created using Figma 0.90</desc>
<g id="Canvas" transform="translate(-624 325)" figma:type="canvas">
<mask id="mask0_outline" mask-type="alpha">
<path d="M 624 -325L 668 -325L 668 -281L 624 -281L 624 -325Z" fill="#FFFFFF"/>
</mask>
<g id="Snow" style="mix-blend-mode:normal;" mask="url(#mask0_outline)" figma:type="frame">
<g id="Snow" style="mix-blend-mode:normal;" figma:type="group">
<g id="Union" style="mix-blend-mode:normal;" figma:type="vector-operation">
<use xlink:href="#path0_fill" transform="translate(632 -319)" fill="#9FAFE5" style="mix-blend-mode:normal;"/>
</g>
</g>
</g>
</g>
<defs>
<path id="path0_fill" d="M 14.9026 15.5898C 14.8889 15.5594 14.8736 15.5295 14.8566 15.5C 14.7689 15.3481 14.6474 15.228 14.5071 15.1435L 14.4906 15.134C 14.6796 15.2431 14.8196 15.4047 14.9026 15.5898ZM 14.4906 15.134L 14.5071 15.1435C 14.6474 15.228 14.7689 15.3481 14.8566 15.5C 14.8736 15.5295 14.8889 15.5594 14.9026 15.5898C 14.8196 15.4047 14.6796 15.2431 14.4906 15.134ZM 13.1252 16.5015C 13.142 16.5304 13.1601 16.5583 13.1796 16.5852C 13.16 16.558 13.1416 16.5296 13.1245 16.5C 13.0792 16.4215 13.0458 16.3395 13.0236 16.2559C 13.0466 16.343 13.081 16.4255 13.1252 16.5015ZM 13.478 16.8589L 13.4755 16.8573L 13.4739 16.8564L 11.9906 16L 6.12933 19.384L 1.99106 17.6163C 1.48317 17.3993 0.895576 17.6352 0.678627 18.1431C 0.461679 18.651 0.697533 19.2386 1.20542 19.4555L 3.96427 20.634L 0.500167 22.634C 0.0218744 22.9101 -0.142001 23.5217 0.134142 24C 0.410284 24.4783 1.02187 24.6422 1.50017 24.366L 4.96427 22.366C 4.84929 23.3204 4.71337 24.4485 4.60542 25.3445C 4.53936 25.8928 4.93031 26.3909 5.47863 26.4569C 6.02695 26.523 6.525 26.132 6.59106 25.5837C 6.70785 24.6144 6.85736 23.3734 6.97769 22.3747C 7.03785 21.8753 7.09071 21.4366 7.12854 21.1226C 7.1288 21.1204 7.12907 21.1182 7.12933 21.116L 13.4572 17.4626L 13.478 16.8589ZM 13.4755 16.8573L 13.478 16.8589L 13.478 16.8587C 13.4055 16.8154 13.3404 16.7644 13.2832 16.7072C 13.3411 16.7652 13.4053 16.8151 13.4739 16.8564L 13.4755 16.8573ZM 13.0236 16.2559C 13.0458 16.3395 13.0792 16.4215 13.1245 16.5C 13.1416 16.5296 13.16 16.558 13.1796 16.5852C 13.1601 16.5583 13.142 16.5304 13.1252 16.5015C 13.081 16.4255 13.0466 16.343 13.0236 16.2559ZM 9.39056 27.2C 8.94873 27.5314 8.85919 28.1582 9.19056 28.6C 9.52193 29.0418 10.1487 29.1314 10.5906 28.8L 13.1321 26.8938L 12.9906 31C 12.9715 31.552 13.4038 31.9994 13.9561 31.9994C 14.5084 31.9994 14.9715 31.552 14.9906 31L 15.125 27.1008C 15.8638 27.6549 16.7102 28.2898 17.3906 28.8C 17.8324 29.1314 18.4592 29.0418 18.7906 28.6C 19.1219 28.1582 19.0324 27.5314 18.5906 27.2C 17.8095 26.6142 16.8095 25.8642 16.0048 25.2607C 15.7054 25.0361 15.433 24.8318 15.209 24.6638L 15.439 17.991L 20.8518 21.116L 21.39 25.5837C 21.4561 26.132 21.9542 26.523 22.5025 26.4569C 23.0508 26.3909 23.4417 25.8928 23.3757 25.3445L 23.0168 22.366L 26.4809 24.366C 26.9592 24.6422 27.5708 24.4783 27.847 24C 28.1231 23.5217 27.9592 22.9101 27.4809 22.634L 24.0168 20.634C 24.9008 20.2564 25.9458 19.81 26.7757 19.4555C 27.2836 19.2386 27.5194 18.651 27.3025 18.1431C 27.0855 17.6352 26.4979 17.3993 25.99 17.6163C 25.0922 17.9998 23.9427 18.4908 23.0176 18.886C 22.5551 19.0835 22.1487 19.2571 21.8579 19.3813C 21.8559 19.3822 21.8538 19.3831 21.8518 19.384L 15.9906 16L 21.8518 12.616L 25.99 14.3837C 26.4979 14.6007 27.0855 14.3648 27.3025 13.8569C 27.5194 13.349 27.2836 12.7614 26.7757 12.5445L 24.0168 11.366L 27.4809 9.36603C 27.9592 9.08988 28.1231 8.47829 27.847 8C 27.5708 7.52171 26.9592 7.35783 26.4809 7.63397L 23.0168 9.63397C 23.1318 8.67965 23.2677 7.5515 23.3757 6.65552C 23.4417 6.1072 23.0508 5.60915 22.5025 5.54309C 21.9541 5.47702 21.4561 5.86797 21.39 6.41629C 21.2733 7.38559 21.1237 8.62661 21.0034 9.62531C 20.9432 10.1247 20.8904 10.5634 20.8526 10.8774C 20.8523 10.8796 20.852 10.8818 20.8518 10.884L 14.9906 14.268L 14.9906 7.5L 18.5906 4.8C 19.0324 4.46863 19.1219 3.84183 18.7906 3.4C 18.4592 2.95817 17.8324 2.86863 17.3906 3.2L 14.9906 5L 14.9906 1C 14.9906 0.447715 14.5428 0 13.9906 0C 13.4383 0 12.9906 0.447715 12.9906 1L 12.9906 5C 12.2216 4.42326 11.3125 3.74148 10.5906 3.2C 10.1487 2.86863 9.52193 2.95817 9.19056 3.4C 8.85919 3.84183 8.94873 4.46863 9.39056 4.8C 10.1716 5.38579 11.1716 6.13579 11.9763 6.73934C 12.3787 7.04112 12.7323 7.30628 12.9852 7.496C 12.987 7.49734 12.9888 7.49867 12.9906 7.5L 12.9906 14.2679L 7.12934 10.884L 6.59107 6.41629C 6.52501 5.86797 6.02695 5.47702 5.47863 5.54308C 4.93031 5.60915 4.53937 6.1072 4.60543 6.65552L 4.96427 9.63398L 1.50017 7.63398C 1.02187 7.35783 0.410284 7.52171 0.134142 8C -0.142001 8.47829 0.0218743 9.08988 0.500167 9.36603L 3.96427 11.366C 3.08031 11.7436 2.03534 12.19 1.20542 12.5445C 0.697534 12.7614 0.461679 13.349 0.678628 13.8569C 0.895576 14.3648 1.48317 14.6007 1.99106 14.3837C 2.88889 14.0002 4.03842 13.5092 4.96348 13.114C 5.42601 12.9165 5.83243 12.7429 6.12321 12.6186C 6.12526 12.6178 6.1273 12.6169 6.12933 12.616L 11.9906 16L 13.4739 16.8564C 13.4053 16.8151 13.3411 16.7652 13.2832 16.7072C 13.3404 16.7644 13.4055 16.8154 13.478 16.8587L 13.478 16.8589L 13.4572 17.4626L 13.2206 24.3275L 9.39056 27.2Z"/>
</defs>
</svg>
