<svg width="44" height="44" viewBox="0 0 44 44" version="2.0" xmlns="http://www.w3.org/2000/svg" xmlns:xlink="http://www.w3.org/1999/xlink" xmlns:figma="http://www.figma.com/figma/ns">
<title>Sun Shower</title>
<desc>Created using Figma 0.90</desc>
<g id="Canvas" transform="translate(-324 324)" figma:type="canvas">
<mask id="mask0_outline" mask-type="alpha">
<path d="M 324 -324L 368 -324L 368 -280L 324 -280L 324 -324Z" fill="#FFFFFF"/>
</mask>
<g id="Sun Shower" style="mix-blend-mode:normal;" mask="url(#mask0_outline)" figma:type="frame">
<g id="Shower" style="mix-blend-mode:normal;" figma:type="group">
<g id="Group" style="mix-blend-mode:normal;" figma:type="group">
<g id="Ellipse 2" style="mix-blend-mode:normal;" figma:type="vector">
<use xlink:href="#path0_fill" transform="translate(352 -289)" fill="#2D9CDB" style="mix-blend-mode:normal;"/>
</g>
<g id="Ellipse 2" style="mix-blend-mode:normal;" figma:type="vector">
<use xlink:href="#path0_fill" transform="translate(349 -293)" fill="#2D9CDB" style="mix-blend-mode:normal;"/>
</g>
<g id="Ellipse 2" style="mix-blend-mode:normal;" figma:type="vector">
<use xlink:href="#path0_fill" transform="translate(355 -293)" fill="#2D9CDB" style="mix-blend-mode:normal;"/>
</g>
<g id="Ellipse 2" style="mix-blend-mode:normal;" figma:type="vector">
<use xlink:href="#path0_fill" transform="translate(346 -289)" fill="#2D9CDB" style="mix-blend-mode:normal;"/>
</g>
<g id="Ellipse 2" style="mix-blend-mode:normal;" figma:type="vector">
<use xlink:href="#path0_fill" transform="translate(343 -285)" fill="#2D9CDB" style="mix-blend-mode:normal;"/>
</g>
<g id="Ellipse 2" style="mix-blend-mode:normal;" figma:type="vector">
<use xlink:href="#path0_fill" transform="translate(337 -285)" fill="#2D9CDB" style="mix-blend-mode:normal;"/>
</g>
<g id="Ellipse 2" style="mix-blend-mode:normal;" figma:type="vector">
<use xlink:href="#path0_fill" transform="translate(349 -285)" fill="#2D9CDB" style="mix-blend-mode:normal;"/>
</g>
<g id="Ellipse 2" style="mix-blend-mode:normal;" figma:type="vector">
<use xlink:href="#path0_fill" transform="translate(355 -285)" fill="#2D9CDB" style="mix-blend-mode:normal;"/>
</g>
<g id="Ellipse 2" style="mix-blend-mode:normal;" figma:type="vector">
<use xlink:href="#path0_fill" transform="translate(340 -289)" fill="#2D9CDB" style="mix-blend-mode:normal;"/>
</g>
<g id="Ellipse 2" style="mix-blend-mode:normal;" figma:type="vector">
<use xlink:href="#path0_fill" transform="translate(343 -293)" fill="#2D9CDB" style="mix-blend-mode:normal;"/>
</g>
<g id="Ellipse 2" style="mix-blend-mode:normal;" figma:type="vector">
<use xlink:href="#path0_fill" transform="translate(337 -293)" fill="#2D9CDB" style="mix-blend-mode:normal;"/>
</g>
</g>
<g id="Union" style="mix-blend-mode:normal;" figma:type="vector-operation">
<use xlink:href="#path1_fill" transform="translate(330 -318)" fill="#FFFFFF" style="mix-blend-mode:normal;"/>
</g>
<g id="Subtract" style="mix-blend-mode:normal;" figma:type="vector-operation">
<use xlink:href="#path2_fill" transform="translate(326 -322)" fill="#FFCC33" style="mix-blend-mode:normal;"/>
</g>
</g>
</g>
</g>
<defs>
<path id="path0_fill" d="M 2 2C 2 2.55228 1.55228 3 1 3C 0.447715 3 0 2.55228 0 2C 0 1.15976 0.705995 0.31953 0.931581 0.0724965C 0.968823 0.0317139 1.03118 0.0317138 1.06842 0.0724964C 1.294 0.31953 2 1.15976 2 2Z"/>
<path id="path1_fill" d="M 27 22.9836C 30.909 22.7263 34 19.4741 34 15.5C 34 11.3579 30.6421 8 26.5 8C 25.6018 8 24.7405 8.15788 23.9423 8.44741C 23.4186 3.69603 19.3909 0 14.5 0C 9.25329 0 5 4.25329 5 9.5C 5 10.0323 5.04378 10.5544 5.12795 11.0629C 2.22754 11.4852 0 13.9825 0 17C 0 20.3137 2.68629 23 6 23L 26.5 23L 27 23L 27 22.9836Z"/>
<path id="path2_fill" d="M 9 0C 4.02944 0 0 4.02944 0 9C 0 11.9442 1.4137 14.5581 3.59931 16.2001C 4.4673 15.0445 5.64097 14.1316 7.00028 13.5814C 7.00009 13.5543 7 13.5272 7 13.5C 7 8.29443 10.4587 3.89668 15.2035 2.47946C 13.589 0.943041 11.4046 0 9 0Z"/>
</defs>
</svg>
