<svg width="44" height="44" viewBox="0 0 44 44" version="2.0" xmlns="http://www.w3.org/2000/svg" xmlns:xlink="http://www.w3.org/1999/xlink" xmlns:figma="http://www.figma.com/figma/ns">
<title>Windy</title>
<desc>Created using Figma 0.90</desc>
<g id="Canvas" transform="translate(-1016 324)" figma:type="canvas">
<mask id="mask0_outline" mask-type="alpha">
<path d="M 1016 -324L 1060 -324L 1060 -280L 1016 -280L 1016 -324Z" fill="#FFFFFF"/>
</mask>
<g id="Windy" style="mix-blend-mode:normal;" mask="url(#mask0_outline)" figma:type="frame">
<g id="Group" style="mix-blend-mode:normal;" figma:type="group">
<g id="Shape" style="mix-blend-mode:normal;" figma:type="vector">
<use xlink:href="#path0_fill" transform="translate(1021 -315)" fill="#697B94" style="mix-blend-mode:normal;"/>
</g>
<g id="Shape" style="mix-blend-mode:normal;" figma:type="vector">
<use xlink:href="#path1_fill" transform="translate(1023 -298.999)" fill="#697B94" style="mix-blend-mode:normal;"/>
</g>
<g id="Path" style="mix-blend-mode:normal;" figma:type="vector">
<use xlink:href="#path2_fill" transform="translate(1021 -303.999)" fill="#697B94" style="mix-blend-mode:normal;"/>
</g>
</g>
</g>
</g>
<defs>
<path id="path0_fill" fill-rule="evenodd" d="M 10.2355 8.01897C 10.2411 8.01952 10.2468 8.02005 10.2524 8.02056C 12.8082 8.25012 15.4746 8.87676 18.0293 9.09166C 18.0304 9.09176 18.0316 9.09186 18.0327 9.09196L 18.3328 9.11771C 18.3336 9.11777 18.3344 9.11784 18.3351 9.11791C 19.9327 9.25687 21.742 9.41459 23.4024 8.68107C 23.4028 8.68089 23.4032 8.68072 23.4036 8.68054C 25.314 7.8375 26.2818 6.06587 25.9271 4.05727C 25.927 4.05696 25.927 4.05665 25.9269 4.05634C 25.5975 2.18829 23.996 0.212248 21.6263 0.0251653C 21.5864 0.022011 21.5473 0.0186823 21.5074 0.0158021C 21.1385 -0.0107761 19.161 -0.0959479 17.6991 0.734521C 17.2525 0.988239 17.2522 1.58628 17.6153 1.94962L 17.6153 1.94962C 17.9781 2.31272 18.5833 2.31249 19.0671 2.14097C 19.9766 1.81851 21.1274 1.85537 21.3473 1.86839C 21.3705 1.86976 21.3928 1.87153 21.416 1.87335C 22.905 1.99094 23.89 3.21715 24.0948 4.37877C 24.0949 4.37946 24.095 4.38011 24.0952 4.3808C 24.192 4.92943 24.243 6.27621 22.652 6.97879C 22.652 6.9788 22.652 6.97881 22.652 6.97882C 21.4274 7.5196 19.9381 7.3899 18.4956 7.26495C 18.4945 7.26485 18.4934 7.26476 18.4924 7.26467L 18.1884 7.23884C 18.1881 7.23882 18.1878 7.23879 18.1875 7.23877C 15.6346 7.02298 12.971 6.39724 10.4258 6.1686C 10.4199 6.16807 10.4139 6.1675 10.408 6.16692C 5.20825 5.65801 1.96145 7.91304 0.65511 9.07232C 0.273245 9.4112 0.29876 10.004 0.668049 10.3566L 0.668049 10.3566C 1.0408 10.7124 1.62366 10.6884 2.01729 10.3558C 3.19817 9.35795 5.93512 7.60034 10.2355 8.01897Z"/>
<path id="path1_fill" d="M 0.726019 2.93654C 2.07081 1.92283 5.22572 3.46754e-17 9.812 4.68991e-34C 11.369 4.68991e-34 15.195 0.277 17.071 2.846C 18.4109 4.68083 18.288 7.39549 16.7864 9.1625C 16.7861 9.16283 16.7859 9.16316 16.7856 9.16348C 15.7736 10.3522 14.2748 10.999 12.693 10.999C 12.1024 10.999 11.5009 10.9101 10.9073 10.7234C 10.9064 10.7231 10.9056 10.7229 10.9047 10.7226C 9.79488 10.3744 8.96063 9.61582 8.4545 8.50595C 8.23953 8.03455 8.55106 7.51566 9.05353 7.38935C 9.54622 7.26549 10.0266 7.57434 10.2783 8.01561C 10.5632 8.51496 10.96 8.84061 11.4779 9.00295C 11.478 9.00298 11.478 9.00301 11.4781 9.00304C 12.9093 9.45173 14.4624 9.05239 15.3496 8.01366C 15.3505 8.01255 15.3515 8.01144 15.3524 8.01032C 16.302 6.89028 16.3926 5.04381 15.5523 3.89136C 15.5521 3.89112 15.5519 3.89087 15.5517 3.89063C 14.1396 1.95698 10.8009 1.807 9.811 1.807C 5.92312 1.807 3.20492 3.39245 2.0057 4.26289C 1.60502 4.55372 1.03378 4.54493 0.678605 4.20001C 0.307341 3.83946 0.312758 3.24806 0.726019 2.93654Z"/>
<path id="path2_fill" fill-rule="evenodd" d="M 31.9234 1.1345C 31.9225 1.13382 31.9216 1.13314 31.9207 1.13247C 30.9299 0.403389 29.6284 0.0228291 28.0537 0.00365139C 28.044 0.00353314 28.0341 0.00335633 28.0244 0.00312348C 27.0039 -0.0213559 26.1078 0.0994241 25.283 0.317217C 25.2824 0.317395 25.2817 0.317572 25.281 0.31775C 23.233 0.856382 21.1689 1.03637 19.2407 0.978535C 19.2396 0.9785 19.2385 0.978465 19.2373 0.978428C 16.6609 0.89638 13.9697 0.520008 11.2455 0.182291C 11.2412 0.181753 11.2367 0.181187 11.2324 0.180623C 5.78097 -0.528611 2.02558 2.43274 0.614566 3.79793C 0.256678 4.14419 0.304181 4.70665 0.68323 5.02962L 0.68323 5.02962C 1.07491 5.36334 1.67837 5.31898 2.05757 4.97114C 3.36324 3.77344 6.54348 1.43903 11.0036 2.02151C 11.0085 2.02215 11.0135 2.02278 11.0183 2.02339C 13.8027 2.36813 16.549 2.74851 19.1806 2.83247C 19.1809 2.83248 19.1812 2.83249 19.1815 2.8325C 21.2492 2.89745 23.4699 2.71146 25.7406 2.11259C 25.7409 2.11252 25.7412 2.11245 25.7414 2.11238C 26.417 1.93454 27.1993 1.84758 28.0177 1.85747C 28.0186 1.85748 28.0195 1.85749 28.0204 1.8575C 29.2156 1.87068 30.1671 2.13162 30.8478 2.63334C 30.848 2.63344 30.8481 2.63353 30.8482 2.63362C 32.0284 3.50413 32.1839 4.89292 32.1731 5.64419C 32.173 5.64507 32.173 5.64592 32.173 5.64681C 32.1476 7.2108 31.4142 8.71567 30.3032 9.4807C 30.3024 9.48122 30.3017 9.48174 30.3009 9.48226C 29.6737 9.91461 28.8578 10.1433 27.9433 10.1445C 27.9385 10.1445 27.9348 10.1445 27.93 10.1444C 27.5308 10.1407 24.5659 10.031 23.9401 7.55489C 23.8166 7.06617 23.4164 6.65764 22.9124 6.66648L 22.9124 6.66648C 22.4085 6.67532 21.9984 7.0952 22.0802 7.59253C 22.6489 11.0507 26.0674 11.9985 27.934 11.9985L 27.934 11.9985C 29.2202 11.9985 30.3935 11.6589 31.3272 11.0187C 31.3284 11.0179 31.3296 11.0171 31.3308 11.0162C 32.9176 9.92104 33.9648 7.82626 34 5.67641C 34 5.67579 34 5.67517 34.0001 5.67455C 34.0288 3.78558 33.2713 2.13145 31.9234 1.1345Z"/>
</defs>
</svg>
